<svg xmlns="http://www.w3.org/2000/svg" width="2466" height="467" viewBox="0 0 2466 467" fill="none"><path d="M334.056 108.227L416.561 108.228L594.534 428.709L540.095 462.613L334.056 108.227Z" fill="url(#paint0_radial_65_3)"></path><path d="M621.891 461.58L540.01 461.873L417.697 109.988L621.891 461.58Z" fill="#E32B2B"></path><path d="M139.2 457.993C116.868 453.353 95.6807 444.325 76.8658 431.432C38.9468 405.439 12.6471 365.695 3.54684 320.632C-1.17837 297.149 -1.17837 272.961 3.54684 249.478C12.6348 204.41 38.9373 164.662 76.8658 138.678C86.1831 132.303 96.1 126.852 106.476 122.402C117.013 117.887 127.976 114.439 139.2 112.108C162.377 107.324 186.287 107.324 209.465 112.108C220.689 114.435 231.652 117.881 242.189 122.393C252.565 126.842 262.482 132.293 271.8 138.669C299.897 157.931 321.83 184.902 334.96 216.336C336.239 219.399 337.444 222.536 338.545 225.656L279.691 259.636L99.1458 363.874C119.199 383.601 146.2 394.66 174.33 394.667C196.801 393.197 203.385 391.439 219.235 384.982L231.413 379.11L648.966 138.669L680.66 198.034L269.225 434.034C259.474 439.837 249.314 444.922 238.825 449.251C227.817 453.212 217.667 456.615 206.466 458.935C195.85 460.745 185.097 461.629 174.329 461.576C162.528 461.58 150.757 460.379 139.2 457.993ZM66.0338 285.049C66.0311 292.069 66.6937 299.073 68.0128 305.968L246.323 203.02C226.57 185.225 200.915 175.395 174.329 175.434C114.615 175.435 66.0338 224.609 66.0338 285.049Z" fill="url(#paint1_radial_65_3)"></path><path d="M84.6579 436.465C82.0119 434.855 79.3889 433.165 76.8629 431.432C38.9472 405.436 12.6485 365.693 3.54392 320.632C-1.1774 297.149 -1.1774 272.96 3.54392 249.477C12.6334 204.407 38.9352 164.656 76.8629 138.667C96.0474 125.559 117.677 116.451 140.459 111.888C163.241 107.325 186.71 107.399 209.463 112.107C220.688 114.434 231.652 117.88 242.19 122.393C252.566 126.842 262.484 132.293 271.803 138.667C299.899 157.931 321.831 184.902 334.961 216.336C336.217 219.341 337.424 222.476 338.548 225.656L316.888 238.162C302.9 218.829 284.625 202.997 263.495 191.908C241.616 180.472 217.288 174.517 192.6 174.554C187.038 174.556 181.48 174.856 175.951 175.454C175.42 175.445 174.876 175.441 174.335 175.441C160.263 175.429 146.327 178.192 133.325 183.574C120.323 188.955 108.511 196.849 98.5639 206.802C81.3774 220.166 67.2363 237.039 57.0832 256.298C46.93 275.556 40.9978 296.757 39.682 318.488C38.3662 340.219 41.6969 361.981 49.4522 382.324C57.2076 402.667 69.2094 421.123 84.6579 436.463V436.465ZM327.416 400.572C339.518 378.21 345.839 353.178 345.803 327.751C345.803 323.076 345.589 318.344 345.164 313.686L636.052 146.381L647.79 216.337L327.416 400.572Z" fill="url(#paint2_radial_65_3)"></path><path d="M1.70991 309.833C-1.0734 289.753 -0.451349 269.348 3.54991 249.475C12.6304 204.404 38.9314 164.651 76.8619 138.668C86.1805 132.294 96.098 126.843 106.474 122.393C117.013 117.883 127.976 114.437 139.201 112.108C162.378 107.322 186.289 107.322 209.467 112.108C231.798 116.747 252.986 125.775 271.801 138.668C299.901 157.929 321.835 184.901 334.963 216.337C336.235 219.386 337.441 222.522 338.546 225.657L335.768 227.257C289.533 192.917 235.068 174.005 182.416 174.005C158.146 173.861 134.051 178.128 111.307 186.598C72.8029 201.012 40.5583 228.448 20.1659 264.148C12.017 278.491 5.81064 293.854 1.70991 309.833V309.833Z" fill="url(#paint3_linear_65_3)"></path><path d="M759.294 108.713L664.408 272.49L570.016 108.998L759.294 108.713Z" fill="url(#paint4_linear_65_3)"></path><path d="M664.411 272.493L638.027 226.792L755.821 108.998H759.014L664.414 272.489L664.411 272.493Z" fill="url(#paint5_linear_65_3)"></path><path d="M797.663 104.777V461.315H864.7V354.556C886.549 373.919 916.339 380.374 942.662 380.374C1027.08 380.374 1076.24 325.256 1076.24 239.348C1076.24 152.448 1026.58 98.322 944.151 98.322C918.329 98.322 887.542 105.771 864.699 123.151V104.778L797.663 104.777ZM931.239 320.289C904.921 320.289 880.092 312.344 863.705 294.964V184.725C880.092 167.345 904.92 158.903 929.749 158.903C978.91 158.903 1007.71 187.703 1007.71 239.348C1007.71 289.005 978.415 320.289 931.239 320.289ZM1242.09 380.374C1332.97 380.374 1390.57 325.255 1390.57 239.348C1390.57 153.938 1332.97 98.818 1242.09 98.818C1151.22 98.818 1093.62 153.937 1093.62 239.348C1093.62 325.256 1151.22 380.374 1242.09 380.374ZM1242.09 319.296C1194.42 319.296 1162.64 287.515 1162.64 239.348C1162.64 191.677 1194.42 159.896 1242.09 159.896C1289.77 159.896 1321.55 191.677 1321.55 239.348C1321.55 287.515 1289.77 319.296 1242.09 319.296V319.296ZM1422.35 104.777V374.415H1490.38V181.249C1509.75 167.282 1533.04 159.807 1556.92 159.896C1593.67 159.896 1609.56 175.786 1609.56 223.457V374.415H1677.09V213.029C1677.09 129.108 1652.26 98.817 1581.75 98.817C1550.47 98.817 1513.22 109.742 1487.9 124.639V104.776L1422.35 104.777ZM1981.49 240.341C1981.49 157.413 1935.81 98.818 1843.44 98.818C1761.01 98.818 1703.91 153.937 1703.91 239.348C1703.91 324.759 1757.04 379.878 1846.92 379.878C1908.49 379.878 1947.72 358.525 1972.06 324.759L1929.35 288.509C1910.98 310.855 1883.17 322.772 1851.89 322.772C1807.69 322.772 1779.89 300.426 1772.43 260.204H1980.99C1980.99 260.204 1981.49 246.796 1981.49 240.341V240.341ZM1843.44 154.93C1889.62 154.93 1910.97 181.745 1914.94 211.043H1772.92C1781.37 172.31 1809.18 154.93 1843.44 154.93ZM2013.76 104.776V374.415H2081.79V181.249C2101.16 167.281 2124.46 159.806 2148.34 159.896C2185.08 159.896 2200.98 175.786 2200.98 223.457V374.415H2268.51V213.029C2268.51 129.108 2243.68 98.817 2173.17 98.817C2141.88 98.817 2104.64 109.742 2079.32 124.639V104.776H2013.76ZM2402.58 380.871C2431.38 380.871 2453.73 375.905 2464.66 371.436V316.813C2450.76 320.786 2433.87 322.275 2423.44 322.275C2395.14 322.275 2387.69 309.364 2387.69 279.57V160.889H2465.15V104.776H2387.69V0H2320.65V104.777H2281.92V160.89H2320.65V290.99C2320.65 352.566 2343.49 380.871 2402.58 380.871Z" fill="black"></path><defs><radialGradient id="paint0_radial_65_3" cx="0" cy="0" r="1" gradientUnits="userSpaceOnUse" gradientTransform="translate(5943.31 -2855.84) rotate(-117.51) scale(42.5447 7465.63)"><stop stop-color="#E32B2B"></stop><stop offset="1" stop-color="#721616"></stop></radialGradient><radialGradient id="paint1_radial_65_3" cx="0" cy="0" r="1" gradientUnits="userSpaceOnUse" gradientTransform="translate(192.879 492.585) rotate(0.171887) scale(207.601 222.689)"><stop stop-color="#EF352E"></stop><stop offset="1" stop-color="#AC1A1A"></stop></radialGradient><radialGradient id="paint2_radial_65_3" cx="0" cy="0" r="1" gradientUnits="userSpaceOnUse" gradientTransform="translate(171.019 294.137) scale(323.893 163.973)"><stop stop-color="#EF352E"></stop><stop offset="1" stop-color="#EF352E"></stop></radialGradient><linearGradient id="paint3_linear_65_3" x1="169.274" y1="108.518" x2="169.274" y2="296.144" gradientUnits="userSpaceOnUse"><stop stop-color="#EF352E"></stop><stop offset="1" stop-color="#571010"></stop></linearGradient><linearGradient id="paint4_linear_65_3" x1="700.575" y1="168.773" x2="668.493" y2="105.392" gradientUnits="userSpaceOnUse"><stop stop-color="#AC1A1A"></stop><stop offset="1" stop-color="#EF352E"></stop></linearGradient><linearGradient id="paint5_linear_65_3" x1="698.52" y1="108.998" x2="653.488" y2="266.932" gradientUnits="userSpaceOnUse"><stop stop-color="#E32B2B"></stop><stop offset="1" stop-color="#AC1A1A"></stop></linearGradient></defs></svg>